:SAMPLES-PER-SECOND 30
:FULLY-SPECIFIED
:DEGREES
328
root  -54.0674 36.4743 -0.743132 -84.067 78.811 -84.088
RightUpLeg  -26.1296 -8.79777 9.16405
RightLeg  43.6195 3.0587 2.73852
RightFoot  -14.3645 -0.121472 -0.888624
RightToes  -8.3237e-009 0 -3.6325e-017
Spine  8.75402 -2.77068 27.2282
Spine1  6.36377 -0.240733 4.22911
HEad  -22.1332 -0.0354928 -6.19638
LeftShoulder1  -0.390502 4.50336 -32.9418
LeftArm  8.54913 3.09067 -45.2386
LeftForeArm  29.2712 -15.026 -7.86794
LeftHand  -0.0629432 6.32252 -3.01964
RightShoulder  -0.69674 -5.53601 27.612
RightArm  18.1533 -3.47979 43.4117
RightForeArm  9.04448 25.792 5.04598
RightHand  -0.13944 4.19898 -1.97114
LeftUpLeg  -13.3158 6.35724 17.069
LeftLeg  72.8041 -37.925 -66.1094
LeftFoot  -26.0279 -0.613018 -5.91163
LeftToes  -1.18267e-011 3.61711e-011 9.57411e-011
329
root  -53.3164 36.6988 -0.846652 -85.5302 79.7151 -85.7414
RightUpLeg  -24.4898 -9.35109 7.89064
RightLeg  42.7887 3.12626 2.74157
RightFoot  -15.2062 -0.139377 -1.08747
RightToes  -8.3237e-009 0 -3.6325e-017
Spine  9.01042 -2.44076 26.9142
Spine1  5.17542 -0.0414818 4.04872
HEad  -23.1171 -1.64227 -6.08363
LeftShoulder1  -0.326535 4.33659 -33.0695
LeftArm  7.35071 3.95577 -44.6685
LeftForeArm  29.5232 -14.5235 -8.0419
LeftHand  -0.0782037 6.92511 -2.35613
RightShoulder  -0.679159 -5.49125 27.4839
RightArm  15.7457 -2.6016 43.4742
RightForeArm  10.478 28.5988 5.62364
RightHand  -0.155236 5.34064 -1.99618
LeftUpLeg  -14.0163 6.21819 17.1064
LeftLeg  80.0952 -43.0005 -78.5475
LeftFoot  -20.7462 -0.40173 -6.75039
LeftToes  -1.18267e-011 3.61711e-011 9.57411e-011
330
root  -52.5818 37.1547 -0.815666 -86.3107 81.567 -86.8246
RightUpLeg  -22.3443 -8.75565 5.83754
RightLeg  40.6219 2.61138 2.06662
RightFoot  -15.453 -0.132422 -0.779293
RightToes  -8.3237e-009 0 -3.6325e-017
Spine  9.4028 -1.87796 24.4835
Spine1  3.93502 0.161065 3.7846
HEad  -23.0906 -1.24107 -5.66479
LeftShoulder1  -0.341217 4.38362 -32.6416
LeftArm  6.56491 4.70275 -44.58
LeftForeArm  30.0821 -14.6363 -7.82797
LeftHand  -0.0652214 6.46625 -2.78903
RightShoulder  -0.728627 -5.62557 27.6705
RightArm  15.3213 -1.10691 43.3007
RightForeArm  9.68514 30.6813 6.17376
RightHand  -0.189489 4.47859 -2.50887
LeftUpLeg  -14.0309 4.71152 15.6738
LeftLeg  87.9705 -48.6528 -90.0689
LeftFoot  -16.1946 -0.443275 -12.4812
LeftToes  -1.18267e-011 3.61711e-011 9.57411e-011
331
root  -51.9598 37.6143 -0.708746 -88.3176 83.9798 -89.4218
RightUpLeg  -20.7558 -7.3503 3.45026
RightLeg  38.4925 1.37354 0.846264
RightFoot  -15.7308 -0.114748 -0.217826
RightToes  -8.3237e-009 0 -3.6325e-017
Spine  10.4755 -1.15658 19.7417
Spine1  1.95541 0.115632 4.76627
HEad  -24.0166 -0.879993 -5.05497
LeftShoulder1  -0.362848 4.43556 -32.8036
LeftArm  5.625 5.33889 -44.1081
LeftForeArm  30.3425 -14.7128 -7.61753
LeftHand  -0.0560297 6.14284 -3.12285
RightShoulder  -0.638109 -5.40707 26.8293
RightArm  14.4145 -0.713743 43.5471
RightForeArm  10.2201 33.1103 6.76012
RightHand  -0.179997 4.23173 -2.4427
LeftUpLeg  -13.7579 0.996398 13.6137
LeftLeg  96.2293 -54.6999 -100.21
LeftFoot  -13.816 -0.288946 -16.9625
LeftToes  -1.18267e-011 3.61711e-011 9.57411e-011
332
root  -51.4822 37.9664 -0.496076 -83.0372 86.6182 -84.7481
RightUpLeg  -20.0349 -5.8058 0.978041
RightLeg  37.4581 0.115603 -0.228767
RightFoot  -16.2538 -0.112058 -0.0164292
RightToes  -8.3237e-009 0 -3.6325e-017
Spine  12.8912 -0.279702 13.9848
Spine1  -0.851045 0.506509 4.69028
HEad  -26.0302 -0.354257 -3.42058
LeftShoulder1  -0.19856 4.02541 -31.7189
LeftArm  6.13246 6.26978 -44.0624
LeftForeArm  28.8973 -15.3745 -7.28009
LeftHand  -0.0678568 6.66831 -2.99548
RightShoulder  -0.651478 -5.4334 27.0708
RightArm  13.5615 -0.59839 43.024
RightForeArm  11.0238 35.7699 7.43428
RightHand  -0.215118 4.65944 -2.77259
LeftUpLeg  -13.1369 -3.64352 11.5607
LeftLeg  103.458 -60.3353 -107.787
LeftFoot  -13.5286 -0.353239 -22.113
LeftToes  -1.18267e-011 3.61711e-011 9.57411e-011
333
root  -51.1295 37.7999 -0.384733 -46.4219 87.8122 -48.2044
RightUpLeg  -20.9993 -4.56339 -0.797213
RightLeg  40.2424 0.244531 -0.0443866
RightFoot  -18.0935 -0.114397 0.0927109
RightToes  -8.3237e-009 0 -3.6325e-017
Spine  16.9151 0.926314 10.0523
Spine1  -4.24364 1.7431 3.89119
HEad  -29.5023 2.23186 -0.972521
LeftShoulder1  0.00541835 3.49146 -30.6076
LeftArm  6.77926 6.88152 -43.9885
LeftForeArm  26.8805 -15.841 -7.09281
LeftHand  -0.0689672 6.65478 -2.65388
RightShoulder  -0.573397 -5.18407 27.3546
RightArm  12.1938 -1.35403 41.5303
RightForeArm  12.3025 39.9396 8.61503
RightHand  -0.17153 4.5178 -2.29146
LeftUpLeg  -13.0687 -6.10983 10.5883
LeftLeg  108.391 -61.9111 -112.993
LeftFoot  -14.6593 -0.582421 -22.9982
LeftToes  -1.18267e-011 3.61711e-011 9.57411e-011
